# xmcd CD database file
#
# Track frame offsets:
#	150
#	36123
#	63217
#	95911
#	124595
#	158426
#	186325
#	217426
#
# Disc length: 3230 seconds
#
# Revision: 2
# Processed by: cddbd v1.5.1PL2 Copyright (c) Steve Scherf et al.
# Submitted via: CDex 1.51
#
DISCID=710c9c08
DTITLE=Holly Hofmann - Minor Miracle
DYEAR=2004
DGENRE=Jazz
TTITLE0=Everything I Love
TTITLE1=CRS - CRAFT
TTITLE2=Minor Miracle
TTITLE3=Samba do Aviao
TTITLE4=Tonk
TTITLE5=Johnny Come Lately
TTITLE6=Minha
TTITLE7=Will You Still Be Mine?
EXTD=YEAR: 2004
EXTT0=
EXTT1=
EXTT2=
EXTT3=
EXTT4=
EXTT5=
EXTT6=
EXTT7=
PLAYORDER=
